<svg id="Layer_1" data-name="Layer 1" xmlns="http://www.w3.org/2000/svg" viewBox="0 0 274.53 182.55"><defs><style>.cls-1{fill:none;stroke:#37076f;stroke-linecap:round;stroke-width:7.5px;}.cls-1,.cls-5,.cls-6{stroke-miterlimit:3;}.cls-2{fill:#af98ca;}.cls-3{fill:#470d8a;}.cls-4{fill:#7e1dec;}.cls-5,.cls-6{fill:#fff;stroke-width:3px;}.cls-5{stroke:#984af0;}.cls-6{stroke:#7e1dec;}</style></defs><title>Artboard 1</title><line class="cls-1" x1="158.18" y1="22.08" x2="96.44" y2="83.83"/><line class="cls-1" x1="178.41" y1="42.31" x2="116.67" y2="104.05"/><line class="cls-1" x1="177.95" y1="83.36" x2="116.2" y2="21.62"/><line class="cls-1" x1="157.72" y1="103.59" x2="95.98" y2="41.84"/><path class="cls-2" d="M112,87.31h50.39c47.91,0,86.8,20,86.8,44.73h0c0,24.69-38.89,44.73-86.8,44.73H112c-47.91,0-86.81-20-86.81-44.73h0C25.19,107.35,64.09,87.31,112,87.31Z"/><path class="cls-3" d="M39.34,156.63c-40.56-30.54-42-89.48-36.77-86.82s41.5,28.11,25.33,9.52S14.7,22.13,18.67,3.69,32.47,61,89.81,68.43s72.41,35,51.42,81.72S79.91,187.17,39.34,156.63Z"/><path class="cls-4" d="M133.47,149.63c-21-46.67-5.93-74.31,51.42-81.71S252.07-15.26,256,3.17,263,60.23,246.8,78.81,266.91,72,272.13,69.3s3.79,56.28-36.78,86.82S154.47,196.31,133.47,149.63Z"/><ellipse class="cls-5" cx="185.69" cy="132.53" rx="17.5" ry="17.79"/><ellipse class="cls-6" cx="95.69" cy="135.85" rx="17.5" ry="17.79"/></svg>